<svg width="32" height="32" viewBox="0 0 32 32" fill="none" xmlns="http://www.w3.org/2000/svg">
<path d="M14.6667 5.33331H9.06675C6.82654 5.33331 5.70643 5.33331 4.85079 5.76929C4.09814 6.15278 3.48622 6.7647 3.10272 7.51735C2.66675 8.373 2.66675 9.4931 2.66675 11.7333V22.9333C2.66675 25.1735 2.66675 26.2936 3.10272 27.1493C3.48622 27.9019 4.09814 28.5138 4.85079 28.8973C5.70643 29.3333 6.82654 29.3333 9.06675 29.3333H20.2667C22.507 29.3333 23.6271 29.3333 24.4827 28.8973C25.2354 28.5138 25.8473 27.9019 26.2308 27.1493C26.6667 26.2936 26.6667 25.1735 26.6667 22.9333V17.3333M10.6667 21.3333H12.8994C13.5517 21.3333 13.8778 21.3333 14.1847 21.2596C14.4568 21.1943 14.7169 21.0866 14.9555 20.9404C15.2246 20.7754 15.4552 20.5448 15.9164 20.0836L28.6667 7.33331C29.7713 6.22874 29.7713 4.43788 28.6667 3.33331C27.5622 2.22874 25.7713 2.22874 24.6667 3.33331L11.9164 16.0836C11.4552 16.5448 11.2246 16.7754 11.0597 17.0446C10.9135 17.2831 10.8057 17.5433 10.7404 17.8154C10.6667 18.1223 10.6667 18.4484 10.6667 19.1006V21.3333Z" stroke="#677184" stroke-width="2.66667" stroke-linecap="round" stroke-linejoin="round"/>
</svg>
