<svg width="30" height="30" viewBox="0 0 30 30" fill="none" xmlns="http://www.w3.org/2000/svg">
<path d="M7.33337 16.0002L8.37932 18.0921C8.7333 18.8 8.9103 19.154 9.14675 19.4608C9.35656 19.733 9.60058 19.977 9.87278 20.1868C10.1795 20.4232 10.5335 20.6002 11.2415 20.9542L13.3334 22.0002L11.2415 23.0461C10.5335 23.4001 10.1795 23.5771 9.87278 23.8135C9.60058 24.0234 9.35656 24.2674 9.14675 24.5396C8.9103 24.8463 8.7333 25.2003 8.37932 25.9083L7.33337 28.0002L6.28743 25.9083C5.93344 25.2003 5.75645 24.8463 5.52 24.5396C5.31018 24.2674 5.06616 24.0234 4.79397 23.8135C4.48722 23.5771 4.13323 23.4001 3.42526 23.0461L1.33337 22.0002L3.42526 20.9542C4.13323 20.6002 4.48722 20.4232 4.79397 20.1868C5.06616 19.977 5.31018 19.733 5.52 19.4608C5.75645 19.154 5.93344 18.8 6.28743 18.0921L7.33337 16.0002Z" stroke="#677184" stroke-width="2.66667" stroke-linecap="round" stroke-linejoin="round"/>
<path d="M18.6667 1.3335L20.2382 5.41939C20.6142 6.39703 20.8022 6.88585 21.0946 7.29702C21.3537 7.66143 21.6721 7.97982 22.0365 8.23894C22.4477 8.53131 22.9365 8.71932 23.9141 9.09533L28 10.6668L23.9142 12.2383C22.9365 12.6143 22.4477 12.8023 22.0365 13.0947C21.6721 13.3538 21.3537 13.6722 21.0946 14.0366C20.8022 14.4478 20.6142 14.9366 20.2382 15.9143L18.6667 20.0002L17.0952 15.9143C16.7192 14.9366 16.5312 14.4478 16.2388 14.0366C15.9797 13.6722 15.6613 13.3538 15.2969 13.0947C14.8857 12.8023 14.3969 12.6143 13.4193 12.2383L9.33337 10.6668L13.4193 9.09533C14.3969 8.71932 14.8857 8.53131 15.2969 8.23894C15.6613 7.97982 15.9797 7.66143 16.2388 7.29702C16.5312 6.88585 16.7192 6.39703 17.0952 5.41939L18.6667 1.3335Z" stroke="#677184" stroke-width="2.66667" stroke-linecap="round" stroke-linejoin="round"/>
</svg>
