<svg width="32" height="32" viewBox="0 0 32 32" fill="none" xmlns="http://www.w3.org/2000/svg">
<path d="M26.6666 26.6667V17.3333M15.9999 26.6667V13.3333M5.33325 26.6667L5.33325 21.3333M17.8755 6.70334L24.7667 9.28756M14.3983 7.20123L6.93356 12.7998M28.0808 8.58579C28.8618 9.36683 28.8618 10.6332 28.0808 11.4142C27.2998 12.1953 26.0334 12.1953 25.2524 11.4142C24.4713 10.6332 24.4713 9.36683 25.2524 8.58579C26.0334 7.80474 27.2998 7.80474 28.0808 8.58579ZM6.74747 12.5858C7.52851 13.3668 7.52851 14.6332 6.74747 15.4142C5.96642 16.1953 4.70009 16.1953 3.91904 15.4142C3.13799 14.6332 3.13799 13.3668 3.91904 12.5858C4.70009 11.8047 5.96642 11.8047 6.74747 12.5858ZM17.4141 4.58579C18.1952 5.36683 18.1952 6.63317 17.4141 7.41421C16.6331 8.19526 15.3668 8.19526 14.5857 7.41421C13.8047 6.63317 13.8047 5.36683 14.5857 4.58579C15.3668 3.80474 16.6331 3.80474 17.4141 4.58579Z" stroke="#677184" stroke-width="2.66667" stroke-linecap="round" stroke-linejoin="round"/>
</svg>
