<svg width="32" height="32" viewBox="0 0 32 32" fill="none" xmlns="http://www.w3.org/2000/svg">
<path d="M13.3334 15.3795C14.9781 14.4289 17.0219 14.4289 18.6666 15.3795M11.7713 12.2286C13.8541 14.3114 13.8541 17.6883 11.7713 19.7711C9.68853 21.8539 6.31165 21.8539 4.22884 19.7711C2.14605 17.6883 2.14605 14.3114 4.22884 12.2286C6.31163 10.1458 9.68852 10.1458 11.7713 12.2286ZM27.7713 12.2286C29.8541 14.3114 29.8541 17.6883 27.7713 19.7711C25.6885 21.8539 22.3116 21.8539 20.2288 19.7711C18.1461 17.6883 18.1461 14.3114 20.2288 12.2286C22.3116 10.1458 25.6885 10.1458 27.7713 12.2286Z" stroke="#677184" stroke-width="2.66667" stroke-linecap="round" stroke-linejoin="round"/>
</svg>
