<svg width="20" height="20" viewBox="0 0 20 20" fill="none" xmlns="http://www.w3.org/2000/svg">
<g clip-path="url(#clip0_625_6989)">
<path d="M5.41667 10.8337L6.07038 12.1411C6.29162 12.5836 6.40224 12.8048 6.55003 12.9965C6.68116 13.1667 6.83367 13.3192 7.00379 13.4503C7.19551 13.5981 7.41675 13.7087 7.85924 13.9299L9.16667 14.5837L7.85924 15.2374C7.41675 15.4586 7.19551 15.5692 7.00379 15.717C6.83367 15.8482 6.68116 16.0007 6.55003 16.1708C6.40224 16.3625 6.29162 16.5837 6.07038 17.0262L5.41667 18.3337L4.76295 17.0262C4.54171 16.5837 4.43109 16.3625 4.28331 16.1708C4.15217 16.0007 3.99966 15.8482 3.82954 15.717C3.63782 15.5692 3.41658 15.4586 2.9741 15.2374L1.66667 14.5837L2.9741 13.9299C3.41658 13.7087 3.63782 13.5981 3.82954 13.4503C3.99966 13.3192 4.15217 13.1667 4.28331 12.9965C4.43109 12.8048 4.54171 12.5836 4.76295 12.1411L5.41667 10.8337Z" stroke="#F7F7F7" stroke-width="0.66667" stroke-linecap="round" stroke-linejoin="round"/>
<path d="M12.5 1.66699L13.4822 4.22067C13.7172 4.8317 13.8347 5.13721 14.0174 5.39419C14.1794 5.62195 14.3784 5.82095 14.6061 5.9829C14.8631 6.16563 15.1686 6.28313 15.7797 6.51814L18.3333 7.50033L15.7797 8.48251C15.1686 8.71752 14.8631 8.83503 14.6061 9.01775C14.3784 9.1797 14.1794 9.3787 14.0174 9.60646C13.8347 9.86344 13.7172 10.169 13.4822 10.78L12.5 13.3337L11.5178 10.78C11.2828 10.169 11.1653 9.86344 10.9826 9.60646C10.8206 9.3787 10.6216 9.1797 10.3939 9.01775C10.1369 8.83503 9.83137 8.71752 9.22035 8.48251L6.66667 7.50033L9.22035 6.51814C9.83137 6.28313 10.1369 6.16563 10.3939 5.9829C10.6216 5.82095 10.8206 5.62195 10.9826 5.39419C11.1653 5.13721 11.2828 4.8317 11.5178 4.22067L12.5 1.66699Z" stroke="#F7F7F7" stroke-width="0.66667" stroke-linecap="round" stroke-linejoin="round"/>
</g>
<defs>
<clipPath id="clip0_625_6989">
<rect width="20" height="20" fill="white"/>
</clipPath>
</defs>
</svg>
